<svg width="26" height="26" viewBox="0 0 26 26" fill="none" xmlns="http://www.w3.org/2000/svg">
<path fill-rule="evenodd" clip-rule="evenodd" d="M19.5 9.99074C19.5 13.7135 15.4375 18.4167 13 18.4167C10.5625 18.4167 6.49999 13.7135 6.49999 9.99074C6.49999 6.26793 9.41014 3.25 13 3.25C16.5898 3.25 19.5 6.26793 19.5 9.99074ZM15.1667 9.75C15.1667 10.9466 14.1966 11.9167 13 11.9167C11.8034 11.9167 10.8333 10.9466 10.8333 9.75C10.8333 8.55338 11.8034 7.58333 13 7.58333C14.1966 7.58333 15.1667 8.55338 15.1667 9.75ZM6.31958 17.3333H7.76786C9.46553 19.2469 11.4723 20.5833 13.0001 20.5833C14.528 20.5833 16.5347 19.2469 18.2324 17.3333H19.6807C20.5554 17.3333 21.3443 17.8593 21.6807 18.6667L22.5835 20.8333C23.1781 22.2605 22.1295 23.8333 20.5835 23.8333H5.4168C3.87071 23.8333 2.82215 22.2605 3.4168 20.8333L4.31958 18.6667C4.65599 17.8593 5.44489 17.3333 6.31958 17.3333Z" fill="#454545"/>
</svg>
