<svg width="16" height="16" viewBox="0 0 16 16" fill="none" xmlns="http://www.w3.org/2000/svg">
<path fill-rule="evenodd" clip-rule="evenodd" d="M13.5684 15.1594C14.0078 15.5987 14.7201 15.5987 15.1594 15.1594C15.5988 14.7201 15.5988 14.0078 15.1594 13.5684L9.59098 7.99997L15.1594 2.43155C15.5987 1.99221 15.5987 1.2799 15.1594 0.840557C14.7201 0.401218 14.0078 0.401218 13.5684 0.840557L7.99999 6.40898L2.43149 0.840491C1.99215 0.401151 1.27984 0.401152 0.840505 0.840491C0.401165 1.27983 0.401164 1.99214 0.840504 2.43148L6.409 7.99997L0.840491 13.5685C0.401151 14.0078 0.401152 14.7201 0.840491 15.1595C1.27983 15.5988 1.99214 15.5988 2.43148 15.1595L7.99999 9.59096L13.5684 15.1594Z" fill="#454545"/>
</svg>
