<svg width="22" height="22" viewBox="0 0 22 22" fill="none" xmlns="http://www.w3.org/2000/svg">
<path d="M0.755506 1.99451C0.674153 1.91315 0.609619 1.81657 0.565591 1.71028C0.521563 1.60398 0.498901 1.49006 0.498901 1.37501C0.498901 1.25995 0.521563 1.14603 0.565591 1.03974C0.609619 0.933442 0.674153 0.83686 0.755506 0.755506C0.83686 0.674153 0.933442 0.609619 1.03974 0.565591C1.14603 0.521563 1.25995 0.498901 1.37501 0.498901C1.49006 0.498901 1.60398 0.521563 1.71028 0.565591C1.81657 0.609619 1.91315 0.674153 1.99451 0.755506L11 9.76276L20.0055 0.755506C20.0869 0.674153 20.1834 0.609619 20.2897 0.565591C20.396 0.521563 20.51 0.498901 20.625 0.498901C20.7401 0.498901 20.854 0.521563 20.9603 0.565591C21.0666 0.609619 21.1632 0.674153 21.2445 0.755506C21.3259 0.83686 21.3904 0.933442 21.4344 1.03974C21.4784 1.14603 21.5011 1.25995 21.5011 1.37501C21.5011 1.49006 21.4784 1.60398 21.4344 1.71028C21.3904 1.81657 21.3259 1.91315 21.2445 1.99451L12.2373 11L21.2445 20.0055C21.3259 20.0869 21.3904 20.1834 21.4344 20.2897C21.4784 20.396 21.5011 20.51 21.5011 20.625C21.5011 20.7401 21.4784 20.854 21.4344 20.9603C21.3904 21.0666 21.3259 21.1632 21.2445 21.2445C21.1632 21.3259 21.0666 21.3904 20.9603 21.4344C20.854 21.4784 20.7401 21.5011 20.625 21.5011C20.51 21.5011 20.396 21.4784 20.2897 21.4344C20.1834 21.3904 20.0869 21.3259 20.0055 21.2445L11 12.2373L1.99451 21.2445C1.91315 21.3259 1.81657 21.3904 1.71028 21.4344C1.60398 21.4784 1.49006 21.5011 1.37501 21.5011C1.25995 21.5011 1.14603 21.4784 1.03974 21.4344C0.933442 21.3904 0.83686 21.3259 0.755506 21.2445C0.674153 21.1632 0.609619 21.0666 0.565591 20.9603C0.521563 20.854 0.498901 20.7401 0.498901 20.625C0.498901 20.51 0.521563 20.396 0.565591 20.2897C0.609619 20.1834 0.674153 20.0869 0.755506 20.0055L9.76276 11L0.755506 1.99451Z" fill="#454545"/>
</svg>
